# xmcd CD database file
#
# Track frame offsets:
#	150
#	23783
#	43581
#	78419
#	118916
#	140386
#	155341
#	186815
#
# Disc length: 3032 seconds
#
# Revision: 0
# Processed by: cddbd v1.5.2PL0 Copyright (c) Steve Scherf et al.
# Submitted via: CDex 1.77
#
DISCID=620bd608
DTITLE=Tom Beckham/Brad Shepik - Flower Starter
DYEAR=2014
DGENRE=Jazz
TTITLE0=Rumor
TTITLE1=Medium
TTITLE2=Duet 1
TTITLE3=Flower Starter
TTITLE4=Episode
TTITLE5=Blues Inside Out
TTITLE6=Duet 2
TTITLE7=Duet 3
EXTD=YEAR: 2014
EXTT0=
EXTT1=
EXTT2=
EXTT3=
EXTT4=
EXTT5=
EXTT6=
EXTT7=
PLAYORDER=
